{
	"asset":{
		"generator":"Khronos glTF Blender I/O v4.2.69",
		"version":"2.0"
	},
	"scene":0,
	"scenes":[
		{
			"name":"Scene",
			"nodes":[
				5
			]
		}
	],
	"nodes":[
		{
			"mesh":0,
			"name":"bag1_garbagebags_0",
			"translation":[
				-7.4976091384887695,
				0,
				-48.734439849853516
			]
		},
		{
			"children":[
				0
			],
			"name":"bag1",
			"translation":[
				4.554272651672363,
				8.921844482421875,
				42.48200607299805
			]
		},
		{
			"name":"bag2",
			"rotation":[
				0,
				-0.8450758457183838,
				0,
				0.5346464514732361
			],
			"translation":[
				-12.994046211242676,
				13.762238502502441,
				-44.728363037109375
			]
		},
		{
			"children":[
				1,
				2
			],
			"name":"RootNode"
		},
		{
			"children":[
				3
			],
			"name":"b2778c990f0d4859ae805b1178c14d2d.fbx",
			"rotation":[
				0.70710688829422,
				0,
				0,
				0.7071066498756409
			],
			"scale":[
				0.009999999776482582,
				0.010000000707805157,
				0.010000000707805157
			]
		},
		{
			"children":[
				4
			],
			"name":"Sketchfab_model",
			"rotation":[
				-0.70710688829422,
				0,
				0,
				0.7071066498756409
			]
		}
	],
	"materials":[
		{
			"name":"garbagebags",
			"normalTexture":{
				"index":0
			},
			"occlusionTexture":{
				"index":1,
				"strength":0.5357728004455566
			},
			"pbrMetallicRoughness":{
				"baseColorTexture":{
					"index":2
				},
				"metallicFactor":0,
				"metallicRoughnessTexture":{
					"index":1
				}
			}
		}
	],
	"meshes":[
		{
			"name":"bag1_garbagebags_0",
			"primitives":[
				{
					"attributes":{
						"POSITION":0,
						"NORMAL":1,
						"TEXCOORD_0":2,
						"TEXCOORD_1":3
					},
					"indices":4,
					"material":0
				}
			]
		}
	],
	"textures":[
		{
			"sampler":0,
			"source":0
		},
		{
			"sampler":0,
			"source":1
		},
		{
			"sampler":0,
			"source":2
		}
	],
	"images":[
		{
			"mimeType":"image/png",
			"name":"garbagebags_normal",
			"uri":"garbagebags_normal.png"
		},
		{
			"mimeType":"image/png",
			"name":"garbagebags_metallicRoughness",
			"uri":"garbagebags_metallicRoughness.png"
		},
		{
			"mimeType":"image/png",
			"name":"garbagebags_baseColor",
			"uri":"garbagebags_baseColor.png"
		}
	],
	"accessors":[
		{
			"bufferView":0,
			"componentType":5126,
			"count":289,
			"max":[
				44.274837493896484,
				108.7982177734375,
				48.070655822753906
			],
			"min":[
				-48.351470947265625,
				-7.742884635925293,
				-43.68373107910156
			],
			"type":"VEC3"
		},
		{
			"bufferView":1,
			"componentType":5126,
			"count":289,
			"type":"VEC3"
		},
		{
			"bufferView":2,
			"componentType":5126,
			"count":289,
			"type":"VEC2"
		},
		{
			"bufferView":3,
			"componentType":5126,
			"count":289,
			"type":"VEC2"
		},
		{
			"bufferView":4,
			"componentType":5123,
			"count":1014,
			"type":"SCALAR"
		}
	],
	"bufferViews":[
		{
			"buffer":0,
			"byteLength":3468,
			"byteOffset":0,
			"target":34962
		},
		{
			"buffer":0,
			"byteLength":3468,
			"byteOffset":3468,
			"target":34962
		},
		{
			"buffer":0,
			"byteLength":2312,
			"byteOffset":6936,
			"target":34962
		},
		{
			"buffer":0,
			"byteLength":2312,
			"byteOffset":9248,
			"target":34962
		},
		{
			"buffer":0,
			"byteLength":2028,
			"byteOffset":11560,
			"target":34963
		}
	],
	"samplers":[
		{
			"magFilter":9729,
			"minFilter":9987
		}
	],
	"buffers":[
		{
			"byteLength":13588,
			"uri":"trash_bag.bin"
		}
	]
}
