{
	"asset":{
		"generator":"Khronos glTF Blender I/O v4.2.69",
		"version":"2.0"
	},
	"extensionsUsed":[
		"KHR_materials_clearcoat",
		"KHR_materials_transmission"
	],
	"scene":0,
	"scenes":[
		{
			"name":"Scene",
			"nodes":[
				3
			]
		}
	],
	"nodes":[
		{
			"mesh":0,
			"name":"Object_2",
			"rotation":[
				-0.014407099224627018,
				-0.03345226123929024,
				-0.0014083627611398697,
				0.9993355870246887
			]
		},
		{
			"mesh":1,
			"name":"Object_3",
			"rotation":[
				-0.010996300727128983,
				-0.033447254449129105,
				-0.001522526377812028,
				0.9993788599967957
			],
			"translation":[
				0.10253077000379562,
				-0.048779577016830444,
				14.807282447814941
			]
		},
		{
			"children":[
				0,
				1
			],
			"name":"Waterbottle.obj.cleaner.materialmerger.gles"
		},
		{
			"children":[
				2
			],
			"name":"Sketchfab_model",
			"rotation":[
				-0.70710688829422,
				0,
				0,
				0.7071066498756409
			]
		}
	],
	"materials":[
		{
			"alphaMode":"BLEND",
			"doubleSided":true,
			"emissiveFactor":[
				0.017149390652775764,
				0.017149390652775764,
				0.017149390652775764
			],
			"extensions":{
				"KHR_materials_clearcoat":{
					"clearcoatFactor":0.35537347197532654,
					"clearcoatRoughnessFactor":0
				},
				"KHR_materials_transmission":{
					"transmissionFactor":0.9799923896789551
				}
			},
			"name":"Material.023",
			"pbrMetallicRoughness":{
				"baseColorFactor":[
					1,
					1,
					1,
					0.25
				],
				"metallicFactor":0.27610519528388977,
				"roughnessFactor":0
			}
		},
		{
			"doubleSided":true,
			"extensions":{
				"KHR_materials_clearcoat":{
					"clearcoatFactor":0.06269054859876633,
					"clearcoatRoughnessFactor":0.17244665324687958
				}
			},
			"name":"Material.024",
			"pbrMetallicRoughness":{
				"baseColorFactor":[
					0.04742753133177757,
					0.34603241086006165,
					0.4219779074192047,
					1
				],
				"metallicFactor":0,
				"roughnessFactor":0.4651295840740204
			}
		}
	],
	"meshes":[
		{
			"name":"Object_0",
			"primitives":[
				{
					"attributes":{
						"POSITION":0,
						"NORMAL":1,
						"TEXCOORD_0":2
					},
					"indices":3,
					"material":0
				}
			]
		},
		{
			"name":"Object_1",
			"primitives":[
				{
					"attributes":{
						"POSITION":4,
						"NORMAL":5,
						"TEXCOORD_0":6
					},
					"indices":7,
					"material":1
				}
			]
		}
	],
	"accessors":[
		{
			"bufferView":0,
			"componentType":5126,
			"count":4612,
			"max":[
				5.086158752441406,
				4.627476692199707,
				16.049901962280273
			],
			"min":[
				-5.307830810546875,
				-4.799610137939453,
				-12.30486011505127
			],
			"type":"VEC3"
		},
		{
			"bufferView":1,
			"componentType":5126,
			"count":4612,
			"type":"VEC3"
		},
		{
			"bufferView":2,
			"componentType":5126,
			"count":4612,
			"type":"VEC2"
		},
		{
			"bufferView":3,
			"componentType":5123,
			"count":25716,
			"type":"SCALAR"
		},
		{
			"bufferView":4,
			"componentType":5126,
			"count":896,
			"max":[
				2.1036548614501953,
				2.0193276405334473,
				1.679351806640625
			],
			"min":[
				-2.0235605239868164,
				-2.0433402061462402,
				-0.4408912658691406
			],
			"type":"VEC3"
		},
		{
			"bufferView":5,
			"componentType":5126,
			"count":896,
			"type":"VEC3"
		},
		{
			"bufferView":6,
			"componentType":5126,
			"count":896,
			"type":"VEC2"
		},
		{
			"bufferView":7,
			"componentType":5123,
			"count":5172,
			"type":"SCALAR"
		}
	],
	"bufferViews":[
		{
			"buffer":0,
			"byteLength":55344,
			"byteOffset":0,
			"target":34962
		},
		{
			"buffer":0,
			"byteLength":55344,
			"byteOffset":55344,
			"target":34962
		},
		{
			"buffer":0,
			"byteLength":36896,
			"byteOffset":110688,
			"target":34962
		},
		{
			"buffer":0,
			"byteLength":51432,
			"byteOffset":147584,
			"target":34963
		},
		{
			"buffer":0,
			"byteLength":10752,
			"byteOffset":199016,
			"target":34962
		},
		{
			"buffer":0,
			"byteLength":10752,
			"byteOffset":209768,
			"target":34962
		},
		{
			"buffer":0,
			"byteLength":7168,
			"byteOffset":220520,
			"target":34962
		},
		{
			"buffer":0,
			"byteLength":10344,
			"byteOffset":227688,
			"target":34963
		}
	],
	"buffers":[
		{
			"byteLength":238032,
			"uri":"bottle.bin"
		}
	]
}
