{
	"asset":{
		"generator":"Khronos glTF Blender I/O v4.2.69",
		"version":"2.0"
	},
	"scene":0,
	"scenes":[
		{
			"name":"Scene",
			"nodes":[
				16
			]
		}
	],
	"nodes":[
		{
			"mesh":0,
			"name":"Object_10"
		},
		{
			"mesh":1,
			"name":"Object_11"
		},
		{
			"mesh":2,
			"name":"Object_12"
		},
		{
			"mesh":3,
			"name":"Object_13"
		},
		{
			"mesh":4,
			"name":"Object_14"
		},
		{
			"mesh":5,
			"name":"Object_15"
		},
		{
			"mesh":6,
			"name":"Object_16"
		},
		{
			"mesh":7,
			"name":"Object_2"
		},
		{
			"mesh":8,
			"name":"Object_3"
		},
		{
			"mesh":9,
			"name":"Object_4"
		},
		{
			"mesh":10,
			"name":"Object_5"
		},
		{
			"mesh":11,
			"name":"Object_6"
		},
		{
			"mesh":12,
			"name":"Object_7"
		},
		{
			"mesh":13,
			"name":"Object_8"
		},
		{
			"mesh":14,
			"name":"Object_9"
		},
		{
			"children":[
				0,
				1,
				2,
				3,
				4,
				5,
				6,
				7,
				8,
				9,
				10,
				11,
				12,
				13,
				14
			],
			"name":"tinker.obj.cleaner.materialmerger.gles"
		},
		{
			"children":[
				15
			],
			"name":"Sketchfab_model",
			"rotation":[
				-1,
				0,
				0,
				2.220446049250313e-16
			],
			"translation":[
				0,
				-73.3828125,
				0.16615958511829376
			]
		}
	],
	"materials":[
		{
			"doubleSided":true,
			"name":"color_16448250",
			"pbrMetallicRoughness":{
				"baseColorFactor":[
					0.9803919792175293,
					0.9803919792175293,
					0.9803919792175293,
					1
				],
				"metallicFactor":0
			}
		},
		{
			"doubleSided":true,
			"name":"color_16768282",
			"pbrMetallicRoughness":{
				"baseColorFactor":[
					0.9602083563804626,
					0.7799566388130188,
					0.005928762257099152,
					1
				],
				"metallicFactor":0.6586118936538696,
				"roughnessFactor":0.31813228130340576
			}
		},
		{
			"doubleSided":true,
			"name":"color_1780285",
			"pbrMetallicRoughness":{
				"baseColorFactor":[
					0.014893313869833946,
					0.026309778913855553,
					0.041671693325042725,
					1
				],
				"metallicFactor":0.5074491500854492,
				"roughnessFactor":0.31813228130340576
			}
		},
		{
			"doubleSided":true,
			"name":"color_2829873",
			"pbrMetallicRoughness":{
				"baseColorFactor":[
					0.003389512887224555,
					0.003414240898564458,
					0.0034381442237645388,
					1
				],
				"metallicFactor":0
			}
		},
		{
			"doubleSided":true,
			"name":"color_4014404",
			"pbrMetallicRoughness":{
				"baseColorFactor":[
					0.06935713440179825,
					0.010762523859739304,
					0.010762523859739304,
					1
				]
			}
		},
		{
			"doubleSided":true,
			"name":"color_4634441",
			"pbrMetallicRoughness":{
				"baseColorFactor":[
					0.01832680217921734,
					0.6671627759933472,
					0.024280523881316185,
					1
				],
				"metallicFactor":0.4958212077617645,
				"roughnessFactor":0.31813228130340576
			}
		},
		{
			"doubleSided":true,
			"name":"color_5863568",
			"pbrMetallicRoughness":{
				"baseColorFactor":[
					0.0842873826622963,
					0.15543021261692047,
					0.2181595265865326,
					1
				],
				"metallicFactor":0.7225654125213623,
				"roughnessFactor":0
			}
		},
		{
			"doubleSided":true,
			"name":"color_10988977",
			"pbrMetallicRoughness":{
				"baseColorFactor":[
					0.18285958468914032,
					0.35184285044670105,
					0.4987199604511261,
					1
				],
				"roughnessFactor":0
			}
		},
		{
			"doubleSided":true,
			"name":"color_12568524",
			"pbrMetallicRoughness":{
				"baseColorFactor":[
					0.8464433550834656,
					0.8464433550834656,
					0.8464433550834656,
					1
				],
				"metallicFactor":0.7574491500854492,
				"roughnessFactor":0.7459567785263062
			}
		},
		{
			"doubleSided":true,
			"name":"color_13011844",
			"pbrMetallicRoughness":{
				"baseColorFactor":[
					0.6358071565628052,
					0.2103702574968338,
					0.1728891134262085,
					1
				],
				"metallicFactor":0
			}
		},
		{
			"doubleSided":true,
			"name":"color_13483950",
			"pbrMetallicRoughness":{
				"baseColorFactor":[
					0.6831716299057007,
					0.5350090265274048,
					0.3761065900325775,
					1
				],
				"metallicFactor":0,
				"roughnessFactor":0.6320189237594604
			}
		},
		{
			"doubleSided":true,
			"name":"color_13906176",
			"pbrMetallicRoughness":{
				"baseColorFactor":[
					0.8313729763031006,
					0.09615447372198105,
					0,
					1
				],
				"metallicFactor":0
			}
		},
		{
			"doubleSided":true,
			"name":"color_14541540",
			"pbrMetallicRoughness":{
				"baseColorFactor":[
					0.8666669726371765,
					0.8862749934196472,
					0.8941180109977722,
					1
				],
				"metallicFactor":0
			}
		},
		{
			"doubleSided":true,
			"name":"color_14789940",
			"pbrMetallicRoughness":{
				"baseColorFactor":[
					0.8823530077934265,
					0.67843097448349,
					0.20392200350761414,
					1
				],
				"metallicFactor":0.8214026093482971,
				"roughnessFactor":0.5274345874786377
			}
		},
		{
			"doubleSided":true,
			"name":"color_15277357",
			"pbrMetallicRoughness":{
				"baseColorFactor":[
					0.8928292989730835,
					0.007741772569715977,
					0.036366283893585205,
					1
				],
				"metallicFactor":0.6469840407371521,
				"roughnessFactor":0.3297601640224457
			}
		}
	],
	"meshes":[
		{
			"name":"Object_8",
			"primitives":[
				{
					"attributes":{
						"POSITION":0,
						"NORMAL":1
					},
					"indices":2,
					"material":0
				}
			]
		},
		{
			"name":"Object_9",
			"primitives":[
				{
					"attributes":{
						"POSITION":3,
						"NORMAL":4
					},
					"indices":5,
					"material":1
				}
			]
		},
		{
			"name":"Object_10",
			"primitives":[
				{
					"attributes":{
						"POSITION":6,
						"NORMAL":7
					},
					"indices":8,
					"material":2
				}
			]
		},
		{
			"name":"Object_11",
			"primitives":[
				{
					"attributes":{
						"POSITION":9,
						"NORMAL":10
					},
					"indices":11,
					"material":3
				}
			]
		},
		{
			"name":"Object_12",
			"primitives":[
				{
					"attributes":{
						"POSITION":12,
						"NORMAL":13
					},
					"indices":14,
					"material":4
				}
			]
		},
		{
			"name":"Object_13",
			"primitives":[
				{
					"attributes":{
						"POSITION":15,
						"NORMAL":16
					},
					"indices":17,
					"material":5
				}
			]
		},
		{
			"name":"Object_14",
			"primitives":[
				{
					"attributes":{
						"POSITION":18,
						"NORMAL":19
					},
					"indices":20,
					"material":6
				}
			]
		},
		{
			"name":"Object_0",
			"primitives":[
				{
					"attributes":{
						"POSITION":21,
						"NORMAL":22
					},
					"indices":23,
					"material":7
				}
			]
		},
		{
			"name":"Object_1",
			"primitives":[
				{
					"attributes":{
						"POSITION":24,
						"NORMAL":25
					},
					"indices":26,
					"material":8
				}
			]
		},
		{
			"name":"Object_2",
			"primitives":[
				{
					"attributes":{
						"POSITION":27,
						"NORMAL":28
					},
					"indices":29,
					"material":9
				}
			]
		},
		{
			"name":"Object_3",
			"primitives":[
				{
					"attributes":{
						"POSITION":30,
						"NORMAL":31
					},
					"indices":32,
					"material":10
				}
			]
		},
		{
			"name":"Object_4",
			"primitives":[
				{
					"attributes":{
						"POSITION":33,
						"NORMAL":34
					},
					"indices":35,
					"material":11
				}
			]
		},
		{
			"name":"Object_5",
			"primitives":[
				{
					"attributes":{
						"POSITION":36,
						"NORMAL":37
					},
					"indices":38,
					"material":12
				}
			]
		},
		{
			"name":"Object_6",
			"primitives":[
				{
					"attributes":{
						"POSITION":39,
						"NORMAL":40
					},
					"indices":41,
					"material":13
				}
			]
		},
		{
			"name":"Object_7",
			"primitives":[
				{
					"attributes":{
						"POSITION":42,
						"NORMAL":43
					},
					"indices":44,
					"material":14
				}
			]
		}
	],
	"accessors":[
		{
			"bufferView":0,
			"componentType":5126,
			"count":37664,
			"max":[
				27.011999130249023,
				-1.3559999465942383,
				8.63599967956543
			],
			"min":[
				19.55299949645996,
				-1.5410000085830688,
				-8.477999687194824
			],
			"type":"VEC3"
		},
		{
			"bufferView":1,
			"componentType":5126,
			"count":37664,
			"type":"VEC3"
		},
		{
			"bufferView":2,
			"componentType":5123,
			"count":157653,
			"type":"SCALAR"
		},
		{
			"bufferView":3,
			"componentType":5126,
			"count":866,
			"max":[
				27.100000381469727,
				-0.25,
				8.256999969482422
			],
			"min":[
				19.46500015258789,
				-2.8701999187469482,
				-8.100000381469727
			],
			"type":"VEC3"
		},
		{
			"bufferView":4,
			"componentType":5126,
			"count":866,
			"type":"VEC3"
		},
		{
			"bufferView":5,
			"componentType":5123,
			"count":4161,
			"type":"SCALAR"
		},
		{
			"bufferView":6,
			"componentType":5126,
			"count":310,
			"max":[
				19,
				-0.25,
				9.623000144958496
			],
			"min":[
				-19.1200008392334,
				-1.4329999685287476,
				-9
			],
			"type":"VEC3"
		},
		{
			"bufferView":7,
			"componentType":5126,
			"count":310,
			"type":"VEC3"
		},
		{
			"bufferView":8,
			"componentType":5123,
			"count":732,
			"type":"SCALAR"
		},
		{
			"bufferView":9,
			"componentType":5126,
			"count":28476,
			"max":[
				27.600000381469727,
				0,
				13.899999618530273
			],
			"min":[
				-20.399999618530273,
				-1.5870000123977661,
				-14
			],
			"type":"VEC3"
		},
		{
			"bufferView":10,
			"componentType":5126,
			"count":28476,
			"type":"VEC3"
		},
		{
			"bufferView":11,
			"componentType":5123,
			"count":107334,
			"type":"SCALAR"
		},
		{
			"bufferView":12,
			"componentType":5126,
			"count":56151,
			"max":[
				18.44300079345703,
				-1.4329999685287476,
				9.265000343322754
			],
			"min":[
				-18.562999725341797,
				-102.86299896240234,
				-8.631999969482422
			],
			"type":"VEC3"
		},
		{
			"bufferView":13,
			"componentType":5126,
			"count":56151,
			"type":"VEC3"
		},
		{
			"bufferView":14,
			"componentType":5123,
			"count":96930,
			"type":"SCALAR"
		},
		{
			"bufferView":15,
			"componentType":5126,
			"count":774,
			"max":[
				24.07819938659668,
				-2.548799991607666,
				8.048999786376953
			],
			"min":[
				22.486799240112305,
				-2.6812000274658203,
				-7.892000198364258
			],
			"type":"VEC3"
		},
		{
			"bufferView":16,
			"componentType":5126,
			"count":774,
			"type":"VEC3"
		},
		{
			"bufferView":17,
			"componentType":5123,
			"count":3990,
			"type":"SCALAR"
		},
		{
			"bufferView":18,
			"componentType":5126,
			"count":41798,
			"max":[
				18.333999633789062,
				-2.424999952316284,
				9.145000457763672
			],
			"min":[
				-18.503999710083008,
				-103.88800048828125,
				-8.562000274658203
			],
			"type":"VEC3"
		},
		{
			"bufferView":19,
			"componentType":5126,
			"count":41798,
			"type":"VEC3"
		},
		{
			"bufferView":20,
			"componentType":5123,
			"count":70848,
			"type":"SCALAR"
		},
		{
			"bufferView":21,
			"componentType":5126,
			"count":40,
			"max":[
				1.6799999475479126,
				-123.20999908447266,
				1.6399999856948853
			],
			"min":[
				-1.309000015258789,
				-124.87100219726562,
				-1.284000039100647
			],
			"type":"VEC3"
		},
		{
			"bufferView":22,
			"componentType":5126,
			"count":40,
			"type":"VEC3"
		},
		{
			"bufferView":23,
			"componentType":5123,
			"count":120,
			"type":"SCALAR"
		},
		{
			"bufferView":24,
			"componentType":5126,
			"count":6633,
			"max":[
				27.496999740600586,
				0,
				10.723999977111816
			],
			"min":[
				-20.398000717163086,
				-146.781005859375,
				-10.3100004196167
			],
			"type":"VEC3"
		},
		{
			"bufferView":25,
			"componentType":5126,
			"count":6633,
			"type":"VEC3"
		},
		{
			"bufferView":26,
			"componentType":5123,
			"count":19386,
			"type":"SCALAR"
		},
		{
			"bufferView":27,
			"componentType":5126,
			"count":16225,
			"max":[
				18.284000396728516,
				-1.4329999685287476,
				9.085000038146973
			],
			"min":[
				-18.423999786376953,
				-105.20899963378906,
				-8.522000312805176
			],
			"type":"VEC3"
		},
		{
			"bufferView":28,
			"componentType":5126,
			"count":16225,
			"type":"VEC3"
		},
		{
			"bufferView":29,
			"componentType":5123,
			"count":31326,
			"type":"SCALAR"
		},
		{
			"bufferView":30,
			"componentType":5126,
			"count":54725,
			"max":[
				19,
				-1.4329999685287476,
				9.473999977111816
			],
			"min":[
				-19.1200008392334,
				-104.97100067138672,
				-8.869999885559082
			],
			"type":"VEC3"
		},
		{
			"bufferView":31,
			"componentType":5126,
			"count":54725,
			"type":"VEC3"
		},
		{
			"bufferView":32,
			"componentType":5123,
			"count":115461,
			"type":"SCALAR"
		},
		{
			"bufferView":33,
			"componentType":5126,
			"count":25877,
			"max":[
				27.05699920654297,
				-1.3559999465942383,
				8.699000358581543
			],
			"min":[
				19.507999420166016,
				-1.5360000133514404,
				-8.541999816894531
			],
			"type":"VEC3"
		},
		{
			"bufferView":34,
			"componentType":5126,
			"count":25877,
			"type":"VEC3"
		},
		{
			"bufferView":35,
			"componentType":5123,
			"count":99411,
			"type":"SCALAR"
		},
		{
			"bufferView":36,
			"componentType":5126,
			"count":1170,
			"max":[
				27.02400016784668,
				0,
				13.859999656677246
			],
			"min":[
				15.800000190734863,
				-1.5260000228881836,
				-13.562000274658203
			],
			"type":"VEC3"
		},
		{
			"bufferView":37,
			"componentType":5126,
			"count":1170,
			"type":"VEC3"
		},
		{
			"bufferView":38,
			"componentType":5123,
			"count":2064,
			"type":"SCALAR"
		},
		{
			"bufferView":39,
			"componentType":5126,
			"count":7294,
			"max":[
				27.10700035095215,
				-1.2829999923706055,
				8.74899959564209
			],
			"min":[
				19.45800018310547,
				-3.1110000610351562,
				-8.592000007629395
			],
			"type":"VEC3"
		},
		{
			"bufferView":40,
			"componentType":5126,
			"count":7294,
			"type":"VEC3"
		},
		{
			"bufferView":41,
			"componentType":5123,
			"count":27189,
			"type":"SCALAR"
		},
		{
			"bufferView":42,
			"componentType":5126,
			"count":777,
			"max":[
				24.07819938659668,
				-2.927799940109253,
				8.048999786376953
			],
			"min":[
				22.486799240112305,
				-3.0601999759674072,
				-7.892000198364258
			],
			"type":"VEC3"
		},
		{
			"bufferView":43,
			"componentType":5126,
			"count":777,
			"type":"VEC3"
		},
		{
			"bufferView":44,
			"componentType":5123,
			"count":3999,
			"type":"SCALAR"
		}
	],
	"bufferViews":[
		{
			"buffer":0,
			"byteLength":451968,
			"byteOffset":0,
			"target":34962
		},
		{
			"buffer":0,
			"byteLength":451968,
			"byteOffset":451968,
			"target":34962
		},
		{
			"buffer":0,
			"byteLength":315306,
			"byteOffset":903936,
			"target":34963
		},
		{
			"buffer":0,
			"byteLength":10392,
			"byteOffset":1219244,
			"target":34962
		},
		{
			"buffer":0,
			"byteLength":10392,
			"byteOffset":1229636,
			"target":34962
		},
		{
			"buffer":0,
			"byteLength":8322,
			"byteOffset":1240028,
			"target":34963
		},
		{
			"buffer":0,
			"byteLength":3720,
			"byteOffset":1248352,
			"target":34962
		},
		{
			"buffer":0,
			"byteLength":3720,
			"byteOffset":1252072,
			"target":34962
		},
		{
			"buffer":0,
			"byteLength":1464,
			"byteOffset":1255792,
			"target":34963
		},
		{
			"buffer":0,
			"byteLength":341712,
			"byteOffset":1257256,
			"target":34962
		},
		{
			"buffer":0,
			"byteLength":341712,
			"byteOffset":1598968,
			"target":34962
		},
		{
			"buffer":0,
			"byteLength":214668,
			"byteOffset":1940680,
			"target":34963
		},
		{
			"buffer":0,
			"byteLength":673812,
			"byteOffset":2155348,
			"target":34962
		},
		{
			"buffer":0,
			"byteLength":673812,
			"byteOffset":2829160,
			"target":34962
		},
		{
			"buffer":0,
			"byteLength":193860,
			"byteOffset":3502972,
			"target":34963
		},
		{
			"buffer":0,
			"byteLength":9288,
			"byteOffset":3696832,
			"target":34962
		},
		{
			"buffer":0,
			"byteLength":9288,
			"byteOffset":3706120,
			"target":34962
		},
		{
			"buffer":0,
			"byteLength":7980,
			"byteOffset":3715408,
			"target":34963
		},
		{
			"buffer":0,
			"byteLength":501576,
			"byteOffset":3723388,
			"target":34962
		},
		{
			"buffer":0,
			"byteLength":501576,
			"byteOffset":4224964,
			"target":34962
		},
		{
			"buffer":0,
			"byteLength":141696,
			"byteOffset":4726540,
			"target":34963
		},
		{
			"buffer":0,
			"byteLength":480,
			"byteOffset":4868236,
			"target":34962
		},
		{
			"buffer":0,
			"byteLength":480,
			"byteOffset":4868716,
			"target":34962
		},
		{
			"buffer":0,
			"byteLength":240,
			"byteOffset":4869196,
			"target":34963
		},
		{
			"buffer":0,
			"byteLength":79596,
			"byteOffset":4869436,
			"target":34962
		},
		{
			"buffer":0,
			"byteLength":79596,
			"byteOffset":4949032,
			"target":34962
		},
		{
			"buffer":0,
			"byteLength":38772,
			"byteOffset":5028628,
			"target":34963
		},
		{
			"buffer":0,
			"byteLength":194700,
			"byteOffset":5067400,
			"target":34962
		},
		{
			"buffer":0,
			"byteLength":194700,
			"byteOffset":5262100,
			"target":34962
		},
		{
			"buffer":0,
			"byteLength":62652,
			"byteOffset":5456800,
			"target":34963
		},
		{
			"buffer":0,
			"byteLength":656700,
			"byteOffset":5519452,
			"target":34962
		},
		{
			"buffer":0,
			"byteLength":656700,
			"byteOffset":6176152,
			"target":34962
		},
		{
			"buffer":0,
			"byteLength":230922,
			"byteOffset":6832852,
			"target":34963
		},
		{
			"buffer":0,
			"byteLength":310524,
			"byteOffset":7063776,
			"target":34962
		},
		{
			"buffer":0,
			"byteLength":310524,
			"byteOffset":7374300,
			"target":34962
		},
		{
			"buffer":0,
			"byteLength":198822,
			"byteOffset":7684824,
			"target":34963
		},
		{
			"buffer":0,
			"byteLength":14040,
			"byteOffset":7883648,
			"target":34962
		},
		{
			"buffer":0,
			"byteLength":14040,
			"byteOffset":7897688,
			"target":34962
		},
		{
			"buffer":0,
			"byteLength":4128,
			"byteOffset":7911728,
			"target":34963
		},
		{
			"buffer":0,
			"byteLength":87528,
			"byteOffset":7915856,
			"target":34962
		},
		{
			"buffer":0,
			"byteLength":87528,
			"byteOffset":8003384,
			"target":34962
		},
		{
			"buffer":0,
			"byteLength":54378,
			"byteOffset":8090912,
			"target":34963
		},
		{
			"buffer":0,
			"byteLength":9324,
			"byteOffset":8145292,
			"target":34962
		},
		{
			"buffer":0,
			"byteLength":9324,
			"byteOffset":8154616,
			"target":34962
		},
		{
			"buffer":0,
			"byteLength":7998,
			"byteOffset":8163940,
			"target":34963
		}
	],
	"buffers":[
		{
			"byteLength":8171940,
			"uri":"empire_state_building.bin"
		}
	]
}
