{
	"asset":{
		"generator":"Khronos glTF Blender I/O v4.2.69",
		"version":"2.0"
	},
	"scene":0,
	"scenes":[
		{
			"name":"Scene",
			"nodes":[
				8
			]
		}
	],
	"nodes":[
		{
			"mesh":0,
			"name":"Object_12"
		},
		{
			"mesh":1,
			"name":"Object_14"
		},
		{
			"mesh":2,
			"name":"Object_16"
		},
		{
			"mesh":3,
			"name":"Object_2"
		},
		{
			"mesh":4,
			"name":"Object_3"
		},
		{
			"mesh":5,
			"name":"Object_4"
		},
		{
			"mesh":6,
			"name":"Object_5"
		},
		{
			"children":[
				0,
				1,
				2,
				3,
				4,
				5,
				6
			],
			"name":"tinker.obj.cleaner.materialmerger.gles"
		},
		{
			"children":[
				7
			],
			"name":"Sketchfab_model",
			"rotation":[
				-1,
				0,
				0,
				2.220446049250313e-16
			],
			"translation":[
				0,
				-73.58826446533203,
				0.16615958511829376
			]
		}
	],
	"materials":[
		{
			"doubleSided":true,
			"name":"color_1780285",
			"pbrMetallicRoughness":{
				"baseColorFactor":[
					0.014893313869833946,
					0.026309778913855553,
					0.041671693325042725,
					1
				],
				"metallicFactor":0.5074491500854492,
				"roughnessFactor":0.31813228130340576
			}
		},
		{
			"doubleSided":true,
			"name":"color_4014404",
			"pbrMetallicRoughness":{
				"baseColorFactor":[
					0.06935713440179825,
					0.010762523859739304,
					0.010762523859739304,
					1
				]
			}
		},
		{
			"doubleSided":true,
			"name":"color_5863568",
			"pbrMetallicRoughness":{
				"baseColorFactor":[
					0.0842873826622963,
					0.15543021261692047,
					0.2181595265865326,
					1
				],
				"metallicFactor":0.7225654125213623,
				"roughnessFactor":0
			}
		},
		{
			"doubleSided":true,
			"name":"color_10988977",
			"pbrMetallicRoughness":{
				"baseColorFactor":[
					0.18285958468914032,
					0.35184285044670105,
					0.4987199604511261,
					1
				],
				"roughnessFactor":0
			}
		},
		{
			"doubleSided":true,
			"name":"color_12568524",
			"pbrMetallicRoughness":{
				"baseColorFactor":[
					0.8464433550834656,
					0.8464433550834656,
					0.8464433550834656,
					1
				],
				"metallicFactor":0.7574491500854492,
				"roughnessFactor":0.7459567785263062
			}
		},
		{
			"doubleSided":true,
			"name":"color_13011844",
			"pbrMetallicRoughness":{
				"baseColorFactor":[
					0.6358071565628052,
					0.2103702574968338,
					0.1728891134262085,
					1
				],
				"metallicFactor":0
			}
		},
		{
			"doubleSided":true,
			"name":"color_13483950",
			"pbrMetallicRoughness":{
				"baseColorFactor":[
					0.6831716299057007,
					0.5350090265274048,
					0.3761065900325775,
					1
				],
				"metallicFactor":0,
				"roughnessFactor":0.6320189237594604
			}
		}
	],
	"meshes":[
		{
			"name":"Object_10",
			"primitives":[
				{
					"attributes":{
						"POSITION":0,
						"NORMAL":1
					},
					"indices":2,
					"material":0
				}
			]
		},
		{
			"name":"Object_12",
			"primitives":[
				{
					"attributes":{
						"POSITION":3,
						"NORMAL":4
					},
					"indices":5,
					"material":1
				}
			]
		},
		{
			"name":"Object_14",
			"primitives":[
				{
					"attributes":{
						"POSITION":6,
						"NORMAL":7
					},
					"indices":8,
					"material":2
				}
			]
		},
		{
			"name":"Object_0",
			"primitives":[
				{
					"attributes":{
						"POSITION":9,
						"NORMAL":10
					},
					"indices":11,
					"material":3
				}
			]
		},
		{
			"name":"Object_1",
			"primitives":[
				{
					"attributes":{
						"POSITION":12,
						"NORMAL":13
					},
					"indices":14,
					"material":4
				}
			]
		},
		{
			"name":"Object_2",
			"primitives":[
				{
					"attributes":{
						"POSITION":15,
						"NORMAL":16
					},
					"indices":17,
					"material":5
				}
			]
		},
		{
			"name":"Object_3",
			"primitives":[
				{
					"attributes":{
						"POSITION":18,
						"NORMAL":19
					},
					"indices":20,
					"material":6
				}
			]
		}
	],
	"accessors":[
		{
			"bufferView":0,
			"componentType":5126,
			"count":310,
			"max":[
				19,
				-0.25,
				9.623000144958496
			],
			"min":[
				-19.1200008392334,
				-1.4329999685287476,
				-9
			],
			"type":"VEC3"
		},
		{
			"bufferView":1,
			"componentType":5126,
			"count":310,
			"type":"VEC3"
		},
		{
			"bufferView":2,
			"componentType":5123,
			"count":732,
			"type":"SCALAR"
		},
		{
			"bufferView":3,
			"componentType":5126,
			"count":56151,
			"max":[
				18.44300079345703,
				-1.4329999685287476,
				9.265000343322754
			],
			"min":[
				-18.562999725341797,
				-102.86299896240234,
				-8.631999969482422
			],
			"type":"VEC3"
		},
		{
			"bufferView":4,
			"componentType":5126,
			"count":56151,
			"type":"VEC3"
		},
		{
			"bufferView":5,
			"componentType":5123,
			"count":96930,
			"type":"SCALAR"
		},
		{
			"bufferView":6,
			"componentType":5126,
			"count":41798,
			"max":[
				18.333999633789062,
				-2.424999952316284,
				9.145000457763672
			],
			"min":[
				-18.503999710083008,
				-103.88800048828125,
				-8.562000274658203
			],
			"type":"VEC3"
		},
		{
			"bufferView":7,
			"componentType":5126,
			"count":41798,
			"type":"VEC3"
		},
		{
			"bufferView":8,
			"componentType":5123,
			"count":70848,
			"type":"SCALAR"
		},
		{
			"bufferView":9,
			"componentType":5126,
			"count":40,
			"max":[
				1.6799999475479126,
				-123.20999908447266,
				1.6399999856948853
			],
			"min":[
				-1.309000015258789,
				-124.87100219726562,
				-1.284000039100647
			],
			"type":"VEC3"
		},
		{
			"bufferView":10,
			"componentType":5126,
			"count":40,
			"type":"VEC3"
		},
		{
			"bufferView":11,
			"componentType":5123,
			"count":120,
			"type":"SCALAR"
		},
		{
			"bufferView":12,
			"componentType":5126,
			"count":6171,
			"max":[
				21.25,
				0,
				10.723999977111816
			],
			"min":[
				-20.398000717163086,
				-146.781005859375,
				-10.3100004196167
			],
			"type":"VEC3"
		},
		{
			"bufferView":13,
			"componentType":5126,
			"count":6171,
			"type":"VEC3"
		},
		{
			"bufferView":14,
			"componentType":5123,
			"count":18252,
			"type":"SCALAR"
		},
		{
			"bufferView":15,
			"componentType":5126,
			"count":16225,
			"max":[
				18.284000396728516,
				-1.4329999685287476,
				9.085000038146973
			],
			"min":[
				-18.423999786376953,
				-105.20899963378906,
				-8.522000312805176
			],
			"type":"VEC3"
		},
		{
			"bufferView":16,
			"componentType":5126,
			"count":16225,
			"type":"VEC3"
		},
		{
			"bufferView":17,
			"componentType":5123,
			"count":31326,
			"type":"SCALAR"
		},
		{
			"bufferView":18,
			"componentType":5126,
			"count":54725,
			"max":[
				19,
				-1.4329999685287476,
				9.473999977111816
			],
			"min":[
				-19.1200008392334,
				-104.97100067138672,
				-8.869999885559082
			],
			"type":"VEC3"
		},
		{
			"bufferView":19,
			"componentType":5126,
			"count":54725,
			"type":"VEC3"
		},
		{
			"bufferView":20,
			"componentType":5123,
			"count":115461,
			"type":"SCALAR"
		}
	],
	"bufferViews":[
		{
			"buffer":0,
			"byteLength":3720,
			"byteOffset":0,
			"target":34962
		},
		{
			"buffer":0,
			"byteLength":3720,
			"byteOffset":3720,
			"target":34962
		},
		{
			"buffer":0,
			"byteLength":1464,
			"byteOffset":7440,
			"target":34963
		},
		{
			"buffer":0,
			"byteLength":673812,
			"byteOffset":8904,
			"target":34962
		},
		{
			"buffer":0,
			"byteLength":673812,
			"byteOffset":682716,
			"target":34962
		},
		{
			"buffer":0,
			"byteLength":193860,
			"byteOffset":1356528,
			"target":34963
		},
		{
			"buffer":0,
			"byteLength":501576,
			"byteOffset":1550388,
			"target":34962
		},
		{
			"buffer":0,
			"byteLength":501576,
			"byteOffset":2051964,
			"target":34962
		},
		{
			"buffer":0,
			"byteLength":141696,
			"byteOffset":2553540,
			"target":34963
		},
		{
			"buffer":0,
			"byteLength":480,
			"byteOffset":2695236,
			"target":34962
		},
		{
			"buffer":0,
			"byteLength":480,
			"byteOffset":2695716,
			"target":34962
		},
		{
			"buffer":0,
			"byteLength":240,
			"byteOffset":2696196,
			"target":34963
		},
		{
			"buffer":0,
			"byteLength":74052,
			"byteOffset":2696436,
			"target":34962
		},
		{
			"buffer":0,
			"byteLength":74052,
			"byteOffset":2770488,
			"target":34962
		},
		{
			"buffer":0,
			"byteLength":36504,
			"byteOffset":2844540,
			"target":34963
		},
		{
			"buffer":0,
			"byteLength":194700,
			"byteOffset":2881044,
			"target":34962
		},
		{
			"buffer":0,
			"byteLength":194700,
			"byteOffset":3075744,
			"target":34962
		},
		{
			"buffer":0,
			"byteLength":62652,
			"byteOffset":3270444,
			"target":34963
		},
		{
			"buffer":0,
			"byteLength":656700,
			"byteOffset":3333096,
			"target":34962
		},
		{
			"buffer":0,
			"byteLength":656700,
			"byteOffset":3989796,
			"target":34962
		},
		{
			"buffer":0,
			"byteLength":230922,
			"byteOffset":4646496,
			"target":34963
		}
	],
	"buffers":[
		{
			"byteLength":4877420,
			"uri":"empire_state_building.bin"
		}
	]
}
